<svg version="1.1" baseProfile="full" width="740" height="429" viewbox="0 0 740 429" xmlns="http://www.w3.org/2000/svg" xmlns:xlink="http://www.w3.org/1999/xlink" xmlns:ev="http://www.w3.org/2001/xml-events" style="font:bold normal 12pt Helvetica, Helvetica, sans-serif;;stroke-linejoin:round;stroke-linecap:round">
  <title >gateway</title>
  <desc >#title: gateway
#arrowSize:0.7
#lineWidth: 1
#fill: transparent; #fdf6e3

[In|
[Button Brick|00:11:22:33:44:55]-[&lt;note&gt;pressed]
[pressed]-&gt;[Gateway Brick]

[Gateway Brick]-[&lt;note&gt;/bricks/in/00:11:22:33:44:55/pressed]
[/bricks/in/00:11:22:33:44:55/pressed]-&gt;[MQTT]
]

[Out|
[MQTT]-[&lt;note&gt;/bricks/out/aa:bb:cc:dd:ee:ff/setPattern: 1]
[/bricks/out/aa:bb:cc:dd:ee:ff/setPattern: 1]-&gt;[Gateway Brick]

[Gateway Brick]-[&lt;note&gt;setPattern: 1]
[setPattern: 1]-&gt;[LED Brick|aa:bb:cc:dd:ee:ff]
]</desc>
  <rect x="0" y="0" height="429" width="740" style="stroke:none; fill:transparent;"></rect>
  <rect x="13.5" y="13.5" height="403" width="315" data-name="In" style="stroke:#33322E;fill:transparent;stroke-dasharray:none;stroke-width:1;"></rect>
  <text x="171" y="35" style="fill: #33322E;font:bold  12pt Helvetica, Helvetica, sans-serif;text-anchor: middle;" data-name="In">In</text>
  <path d="M171 119.5 L171 139.5 L171 159.5 L171 159.5 " data-name="In" style="stroke:#33322E;fill:none;stroke-dasharray:none;stroke-width:1;"></path>
  <path d="M171 190.5 L171 210.5 L171 230.5 L171 230.5 " data-name="In" style="stroke:#33322E;fill:none;stroke-dasharray:none;stroke-width:1;"></path>
  <path d="M167.3 221.2 L171 225.8 L174.7 221.2 L171 230.5 Z" data-name="In" style="stroke:#33322E;fill:#33322E;stroke-dasharray:none;stroke-width:1;"></path>
  <path d="M171 261.5 L171 281.5 L171 301.5 L171 301.5 " data-name="In" style="stroke:#33322E;fill:none;stroke-dasharray:none;stroke-width:1;"></path>
  <path d="M171 332.5 L171 352.5 L171 372.5 L171 372.5 " data-name="In" style="stroke:#33322E;fill:none;stroke-dasharray:none;stroke-width:1;"></path>
  <path d="M167.3 363.2 L171 367.8 L174.7 363.2 L171 372.5 Z" data-name="In" style="stroke:#33322E;fill:#33322E;stroke-dasharray:none;stroke-width:1;"></path>
  <rect x="99.5" y="57.5" height="62" width="144" data-name="Button Brick" style="stroke:#33322E;fill: #fdf6e3;stroke-dasharray:none;stroke-width:1;"></rect>
  <text x="171.5" y="79" style="fill: #33322E;font:bold  12pt Helvetica, Helvetica, sans-serif;text-anchor: middle;" data-name="Button Brick">Button Brick</text>
  <text x="107.5" y="110" style="fill: #33322E;font:normal  12pt Helvetica, Helvetica, sans-serif;" data-name="Button Brick">00:11:22:33:44:55</text>
  <path d="M99.5 88.5 L243.5 88.5" data-name="Button Brick" style="stroke:#33322E;fill:none;stroke-dasharray:none;stroke-width:1;"></path>
  <path d="M132.5 159.5 L201.5 159.5 L209.5 167.5 L209.5 190.5 L132.5 190.5 L132.5 159.5 Z" data-name="pressed" style="stroke:#33322E;fill: #fdf6e3;stroke-dasharray:none;stroke-width:1;"></path>
  <path d="M201.5 159.5 L201.5 167.5 L209.5 167.5" data-name="pressed" style="stroke:#33322E;fill:none;stroke-dasharray:none;stroke-width:1;"></path>
  <text x="140.5" y="181" style="fill: #33322E;font:normal  12pt Helvetica, Helvetica, sans-serif;" data-name="pressed">pressed</text>
  <rect x="108.5" y="230.5" height="31" width="126" data-name="Gateway Brick" style="stroke:#33322E;fill: #fdf6e3;stroke-dasharray:none;stroke-width:1;"></rect>
  <text x="171.5" y="252" style="fill: #33322E;font:bold  12pt Helvetica, Helvetica, sans-serif;text-anchor: middle;" data-name="Gateway Brick">Gateway Brick</text>
  <path d="M26.5 301.5 L307.5 301.5 L315.5 309.5 L315.5 332.5 L26.5 332.5 L26.5 301.5 Z" data-name="/bricks/in/00:11:22:33:44:55/pressed" style="stroke:#33322E;fill: #fdf6e3;stroke-dasharray:none;stroke-width:1;"></path>
  <path d="M307.5 301.5 L307.5 309.5 L315.5 309.5" data-name="/bricks/in/00:11:22:33:44:55/pressed" style="stroke:#33322E;fill:none;stroke-dasharray:none;stroke-width:1;"></path>
  <text x="34.5" y="323" style="fill: #33322E;font:normal  12pt Helvetica, Helvetica, sans-serif;" data-name="/bricks/in/00:11:22:33:44:55/pressed">/bricks/in/00:11:22:33:44:55/pressed</text>
  <rect x="140.5" y="372.5" height="31" width="61" data-name="MQTT" style="stroke:#33322E;fill: #fdf6e3;stroke-dasharray:none;stroke-width:1;"></rect>
  <text x="171" y="394" style="fill: #33322E;font:bold  12pt Helvetica, Helvetica, sans-serif;text-anchor: middle;" data-name="MQTT">MQTT</text>
  <path d="M13.5 44.5 L328.5 44.5" data-name="MQTT" style="stroke:#33322E;fill:none;stroke-dasharray:none;stroke-width:1;"></path>
  <rect x="368.5" y="13.5" height="403" width="359" data-name="Out" style="stroke:#33322E;fill:transparent;stroke-dasharray:none;stroke-width:1;"></rect>
  <text x="548" y="35" style="fill: #33322E;font:bold  12pt Helvetica, Helvetica, sans-serif;text-anchor: middle;" data-name="Out">Out</text>
  <path d="M548 88.5 L548 108.5 L548 128.5 L548 128.5 " data-name="Out" style="stroke:#33322E;fill:none;stroke-dasharray:none;stroke-width:1;"></path>
  <path d="M548 159.5 L548 179.5 L548 199.5 L548 199.5 " data-name="Out" style="stroke:#33322E;fill:none;stroke-dasharray:none;stroke-width:1;"></path>
  <path d="M544.3 190.2 L548 194.8 L551.7 190.2 L548 199.5 Z" data-name="Out" style="stroke:#33322E;fill:#33322E;stroke-dasharray:none;stroke-width:1;"></path>
  <path d="M548 230.5 L548 250.5 L548 270.5 L548 270.5 " data-name="Out" style="stroke:#33322E;fill:none;stroke-dasharray:none;stroke-width:1;"></path>
  <path d="M548 301.5 L548 321.5 L548 341.5 L548 341.5 " data-name="Out" style="stroke:#33322E;fill:none;stroke-dasharray:none;stroke-width:1;"></path>
  <path d="M544.3 332.2 L548 336.8 L551.7 332.2 L548 341.5 Z" data-name="Out" style="stroke:#33322E;fill:#33322E;stroke-dasharray:none;stroke-width:1;"></path>
  <rect x="481.5" y="341.5" height="62" width="134" data-name="LED Brick" style="stroke:#33322E;fill: #fdf6e3;stroke-dasharray:none;stroke-width:1;"></rect>
  <text x="548.5" y="363" style="fill: #33322E;font:bold  12pt Helvetica, Helvetica, sans-serif;text-anchor: middle;" data-name="LED Brick">LED Brick</text>
  <text x="489.5" y="394" style="fill: #33322E;font:normal  12pt Helvetica, Helvetica, sans-serif;" data-name="LED Brick">aa:bb:cc:dd:ee:ff</text>
  <path d="M481.5 372.5 L615.5 372.5" data-name="LED Brick" style="stroke:#33322E;fill:none;stroke-dasharray:none;stroke-width:1;"></path>
  <rect x="517.5" y="57.5" height="31" width="61" data-name="MQTT" style="stroke:#33322E;fill: #fdf6e3;stroke-dasharray:none;stroke-width:1;"></rect>
  <text x="548" y="79" style="fill: #33322E;font:bold  12pt Helvetica, Helvetica, sans-serif;text-anchor: middle;" data-name="MQTT">MQTT</text>
  <path d="M381.5 128.5 L706.5 128.5 L714.5 136.5 L714.5 159.5 L381.5 159.5 L381.5 128.5 Z" data-name="/bricks/out/aa:bb:cc:dd:ee:ff/setPattern: 1" style="stroke:#33322E;fill: #fdf6e3;stroke-dasharray:none;stroke-width:1;"></path>
  <path d="M706.5 128.5 L706.5 136.5 L714.5 136.5" data-name="/bricks/out/aa:bb:cc:dd:ee:ff/setPattern: 1" style="stroke:#33322E;fill:none;stroke-dasharray:none;stroke-width:1;"></path>
  <text x="389.5" y="150" style="fill: #33322E;font:normal  12pt Helvetica, Helvetica, sans-serif;" data-name="/bricks/out/aa:bb:cc:dd:ee:ff/setPattern: 1">/bricks/out/aa:bb:cc:dd:ee:ff/setPattern: 1</text>
  <rect x="485.5" y="199.5" height="31" width="126" data-name="Gateway Brick" style="stroke:#33322E;fill: #fdf6e3;stroke-dasharray:none;stroke-width:1;"></rect>
  <text x="548.5" y="221" style="fill: #33322E;font:bold  12pt Helvetica, Helvetica, sans-serif;text-anchor: middle;" data-name="Gateway Brick">Gateway Brick</text>
  <path d="M491.5 270.5 L596.5 270.5 L604.5 278.5 L604.5 301.5 L491.5 301.5 L491.5 270.5 Z" data-name="setPattern: 1" style="stroke:#33322E;fill: #fdf6e3;stroke-dasharray:none;stroke-width:1;"></path>
  <path d="M596.5 270.5 L596.5 278.5 L604.5 278.5" data-name="setPattern: 1" style="stroke:#33322E;fill:none;stroke-dasharray:none;stroke-width:1;"></path>
  <text x="499.5" y="292" style="fill: #33322E;font:normal  12pt Helvetica, Helvetica, sans-serif;" data-name="setPattern: 1">setPattern: 1</text>
  <path d="M368.5 44.5 L727.5 44.5" data-name="setPattern: 1" style="stroke:#33322E;fill:none;stroke-dasharray:none;stroke-width:1;"></path>
</svg>