<svg xmlns="http://www.w3.org/2000/svg" viewBox="0 0 179.52 44.67"><defs><style>.cls-1{fill:none;stroke:#d51a68;stroke-miterlimit:10;stroke-width:2px;}.cls-2{fill:#231f20;}.cls-3{fill:#d51a68;}</style></defs><g id="Layer_1" data-name="Layer 1"><rect class="cls-1" x="1" y="1" width="42.67" height="42.67"/></g><g id="Text_Outlines" data-name="Text Outlines"><path class="cls-2" d="M51.38,7.83h11c2.79,0,4.89.75,6.3,2.17a7.78,7.78,0,0,1,2.12,5.69A6.88,6.88,0,0,1,70,19.16a5.63,5.63,0,0,1-1.28,1.49A9.36,9.36,0,0,1,66.63,22v.09a5.73,5.73,0,0,1,3.52,2.51,8.45,8.45,0,0,1,1.11,4.25,8.15,8.15,0,0,1-2.3,6,7.47,7.47,0,0,1-5.6,2.31h-12Zm4.31,3.94v8.44h6.22a4.37,4.37,0,0,0,3.47-1.28A4.06,4.06,0,0,0,66.51,16a4.28,4.28,0,0,0-1.13-3,4.76,4.76,0,0,0-3.47-1.19Zm0,12.38V33h6.64a4.49,4.49,0,0,0,3.52-1.36A4.54,4.54,0,0,0,67,28.57a4.61,4.61,0,0,0-1.11-3.11,4.54,4.54,0,0,0-3.52-1.31Z"/><path class="cls-2" d="M76.52,7.83H87.63a8.54,8.54,0,0,1,5.79,1.93A7.92,7.92,0,0,1,96.24,16a8.16,8.16,0,0,1-5.49,8.13l6.58,13H92.22L86.34,24.63H80.82V37.17h-4.3Zm4.3,12.86h6.53A4.52,4.52,0,0,0,92.18,16a4,4,0,0,0-1.43-3.33,4.8,4.8,0,0,0-3.16-.91H80.82Z"/><path class="cls-2" d="M101.66,7.83H106V37.17h-4.3Z"/><path class="cls-2" d="M131.46,29a11.13,11.13,0,0,1-3.57,6.27,10,10,0,0,1-6.42,2.17,10.21,10.21,0,0,1-8.9-5.27c-.21-.44-.4-.87-.57-1.27a8.75,8.75,0,0,1-.39-1.57,51.66,51.66,0,0,1-.29-6.8,51.74,51.74,0,0,1,.29-6.85,8.27,8.27,0,0,1,1-2.79,10,10,0,0,1,3.31-3.63,9.59,9.59,0,0,1,5.6-1.65,9.46,9.46,0,0,1,6.7,2.52,11.15,11.15,0,0,1,3.28,6.17h-4.57a6.41,6.41,0,0,0-1.92-3A5.54,5.54,0,0,0,121.46,12a5.89,5.89,0,0,0-2.62.63,5.32,5.32,0,0,0-1.79,1.51,4.88,4.88,0,0,0-1.11,2.44,35.81,35.81,0,0,0-.32,5.91,35,35,0,0,0,.32,5.87,4.94,4.94,0,0,0,1.11,2.48,5.06,5.06,0,0,0,1.8,1.47,4.94,4.94,0,0,0,2.61.67c2.42,0,4.24-1.34,5.43-4Z"/><path class="cls-2" d="M135.21,7.83h4.3V22.94h.09L151.3,7.83h5.11L147.3,19.4l10.07,17.77h-5.12l-7.74-14.35-5,5.41v8.94h-4.3Z"/><path class="cls-2" d="M161.52,30.06A12.3,12.3,0,0,0,169.6,33q5.55-.09,5.62-4.09c0-2.19-1.21-3.51-3.7-3.95-1.15-.16-2.4-.34-3.77-.55a9.14,9.14,0,0,1-5.57-2.8,7.89,7.89,0,0,1-2-5.43A8.17,8.17,0,0,1,162.68,10a9.47,9.47,0,0,1,6.8-2.38,15.57,15.57,0,0,1,9.21,3l-2.4,3.65a12.72,12.72,0,0,0-7-2.26,5.24,5.24,0,0,0-3.32,1,3.88,3.88,0,0,0-1.42,3.18,3.33,3.33,0,0,0,1,2.3A5.49,5.49,0,0,0,168.53,20c.78.13,1.84.29,3.19.46a8.75,8.75,0,0,1,5.91,3,8.51,8.51,0,0,1,1.89,5.48q-.21,8.41-10,8.54a15.84,15.84,0,0,1-10.85-4Z"/></g><g id="Layer_2" data-name="Layer 2"><rect class="cls-3" x="7.1" y="23.95" width="6.1" height="6.1"/><rect class="cls-3" x="14.71" y="23.95" width="6.1" height="6.1"/><rect class="cls-3" x="31.38" y="4.72" width="6.1" height="6.1" transform="translate(30.01 -27.25) rotate(70.09)"/><rect class="cls-3" x="7.1" y="31.57" width="6.1" height="6.1"/><rect class="cls-3" x="14.71" y="31.57" width="6.1" height="6.1"/><rect class="cls-3" x="22.33" y="31.57" width="6.1" height="6.1"/><rect class="cls-3" x="7.1" y="16.33" width="6.1" height="6.1"/><rect class="cls-3" x="16.69" y="13.59" width="6.1" height="6.1" transform="translate(10.09 -7.3) rotate(27.91)"/><rect class="cls-3" x="26.82" y="16.25" width="6.1" height="6.1" transform="translate(40.88 -14.52) rotate(75.17)"/></g></svg>